<?xml version="1.0" encoding="UTF-8" standalone="no"?><svg xmlns="http://www.w3.org/2000/svg" xmlns:xlink="http://www.w3.org/1999/xlink" contentScriptType="application/ecmascript" contentStyleType="text/css" height="269px" preserveAspectRatio="none" style="width:253px;height:269px;" version="1.1" viewBox="0 0 253 269" width="253px" zoomAndPan="magnify"><defs><filter height="300%" id="f1w3phd4mqsf2q" width="300%" x="-1" y="-1"><feGaussianBlur result="blurOut" stdDeviation="2.0"/><feColorMatrix in="blurOut" result="blurOut2" type="matrix" values="0 0 0 0 0 0 0 0 0 0 0 0 0 0 0 0 0 0 .4 0"/><feOffset dx="4.0" dy="4.0" in="blurOut2" result="blurOut3"/><feBlend in="SourceGraphic" in2="blurOut3" mode="normal"/></filter></defs><g><!--class Nutzer--><rect fill="#FEFECE" filter="url(#f1w3phd4mqsf2q)" height="86.8652" id="Nutzer" style="stroke: #A80036; stroke-width: 1.5;" width="77" x="6" y="172"/><ellipse cx="23.7" cy="188" fill="#ADD1B2" rx="11" ry="11" style="stroke: #A80036; stroke-width: 1.0;"/><path d="M26.6731,193.6431 Q26.0921,193.9419 25.4529,194.0913 Q24.8138,194.2407 24.1082,194.2407 Q21.6014,194.2407 20.2815,192.5889 Q18.9617,190.937 18.9617,187.8159 Q18.9617,184.6865 20.2815,183.0347 Q21.6014,181.3828 24.1082,181.3828 Q24.8138,181.3828 25.4612,181.5322 Q26.1087,181.6816 26.6731,181.9805 L26.6731,184.7031 Q26.0423,184.1221 25.4488,183.8523 Q24.8553,183.5825 24.2244,183.5825 Q22.8797,183.5825 22.1949,184.6492 Q21.5101,185.7158 21.5101,187.8159 Q21.5101,189.9077 22.1949,190.9744 Q22.8797,192.041 24.2244,192.041 Q24.8553,192.041 25.4488,191.7712 Q26.0423,191.5015 26.6731,190.9204 Z "/><text fill="#000000" font-family="sans-serif" font-size="12" lengthAdjust="spacingAndGlyphs" textLength="39" x="38.3" y="192.5352">Nutzer</text><line style="stroke: #A80036; stroke-width: 1.5;" x1="7" x2="82" y1="204" y2="204"/><text fill="#000000" font-family="sans-serif" font-size="11" lengthAdjust="spacingAndGlyphs" textLength="65" x="12" y="218.6348">Nutzername</text><text fill="#000000" font-family="sans-serif" font-size="11" lengthAdjust="spacingAndGlyphs" textLength="48" x="12" y="231.5898">Vorname</text><text fill="#000000" font-family="sans-serif" font-size="11" lengthAdjust="spacingAndGlyphs" textLength="56" x="12" y="244.5449">Nachname</text><line style="stroke: #A80036; stroke-width: 1.5;" x1="7" x2="82" y1="250.8652" y2="250.8652"/><!--class Artikel--><rect fill="#FEFECE" filter="url(#f1w3phd4mqsf2q)" height="86.8652" id="Artikel" style="stroke: #A80036; stroke-width: 1.5;" width="73" x="80" y="8"/><ellipse cx="96.8" cy="24" fill="#ADD1B2" rx="11" ry="11" style="stroke: #A80036; stroke-width: 1.0;"/><path d="M99.7731,29.6431 Q99.1921,29.9419 98.5529,30.0913 Q97.9138,30.2407 97.2082,30.2407 Q94.7014,30.2407 93.3815,28.5889 Q92.0617,26.937 92.0617,23.8159 Q92.0617,20.6865 93.3815,19.0347 Q94.7014,17.3828 97.2082,17.3828 Q97.9138,17.3828 98.5612,17.5322 Q99.2087,17.6816 99.7731,17.9805 L99.7731,20.7031 Q99.1423,20.1221 98.5488,19.8523 Q97.9553,19.5825 97.3244,19.5825 Q95.9797,19.5825 95.2949,20.6492 Q94.6101,21.7158 94.6101,23.8159 Q94.6101,25.9077 95.2949,26.9744 Q95.9797,28.041 97.3244,28.041 Q97.9553,28.041 98.5488,27.7712 Q99.1423,27.5015 99.7731,26.9204 Z "/><text fill="#000000" font-family="sans-serif" font-size="12" lengthAdjust="spacingAndGlyphs" textLength="37" x="111.2" y="28.5352">Artikel</text><line style="stroke: #A80036; stroke-width: 1.5;" x1="81" x2="152" y1="40" y2="40"/><text fill="#000000" font-family="sans-serif" font-size="11" lengthAdjust="spacingAndGlyphs" textLength="61" x="86" y="54.6348">Überschrift</text><text fill="#000000" font-family="sans-serif" font-size="11" lengthAdjust="spacingAndGlyphs" textLength="24" x="86" y="67.5898">Text</text><text fill="#000000" font-family="sans-serif" font-size="11" lengthAdjust="spacingAndGlyphs" textLength="51" x="86" y="80.5449">Zeitpunkt</text><line style="stroke: #A80036; stroke-width: 1.5;" x1="81" x2="152" y1="86.8652" y2="86.8652"/><!--class Kommentare--><rect fill="#FEFECE" filter="url(#f1w3phd4mqsf2q)" height="73.9102" id="Kommentare" style="stroke: #A80036; stroke-width: 1.5;" width="106" x="136.5" y="178.5"/><ellipse cx="151.5" cy="194.5" fill="#ADD1B2" rx="11" ry="11" style="stroke: #A80036; stroke-width: 1.0;"/><path d="M154.4731,200.1431 Q153.8921,200.4419 153.2529,200.5913 Q152.6138,200.7407 151.9082,200.7407 Q149.4014,200.7407 148.0815,199.0889 Q146.7617,197.437 146.7617,194.3159 Q146.7617,191.1865 148.0815,189.5347 Q149.4014,187.8828 151.9082,187.8828 Q152.6138,187.8828 153.2612,188.0322 Q153.9087,188.1816 154.4731,188.4805 L154.4731,191.2031 Q153.8423,190.6221 153.2488,190.3523 Q152.6553,190.0825 152.0244,190.0825 Q150.6797,190.0825 149.9949,191.1492 Q149.3101,192.2158 149.3101,194.3159 Q149.3101,196.4077 149.9949,197.4744 Q150.6797,198.541 152.0244,198.541 Q152.6553,198.541 153.2488,198.2712 Q153.8423,198.0015 154.4731,197.4204 Z "/><text fill="#000000" font-family="sans-serif" font-size="12" lengthAdjust="spacingAndGlyphs" textLength="74" x="165.5" y="199.0352">Kommentare</text><line style="stroke: #A80036; stroke-width: 1.5;" x1="137.5" x2="241.5" y1="210.5" y2="210.5"/><text fill="#000000" font-family="sans-serif" font-size="11" lengthAdjust="spacingAndGlyphs" textLength="24" x="142.5" y="225.1348">Text</text><text fill="#000000" font-family="sans-serif" font-size="11" lengthAdjust="spacingAndGlyphs" textLength="51" x="142.5" y="238.0898">Zeitpunkt</text><line style="stroke: #A80036; stroke-width: 1.5;" x1="137.5" x2="241.5" y1="244.4102" y2="244.4102"/><!--link Artikel to Kommentare--><path d="M142.5445,107.3995 C145.2527,113.3317 147.9466,119.2835 150.5,125 C158.3148,142.4957 166.7565,162.0049 173.7807,178.417 " fill="none" id="Artikel-Kommentare" style="stroke: #A80036; stroke-width: 1.0;"/><polygon fill="#A80036" points="137.0059,95.332,135.8734,102.4536,142.0116,106.2381,143.1441,99.1165,137.0059,95.332" style="stroke: #A80036; stroke-width: 1.0;"/><text fill="#000000" font-family="sans-serif" font-size="13" lengthAdjust="spacingAndGlyphs" textLength="44" x="157.5" y="138.5684">enthält</text><text fill="#000000" font-family="sans-serif" font-size="13" lengthAdjust="spacingAndGlyphs" textLength="8" x="131.4302" y="115.4724">1</text><text fill="#000000" font-family="sans-serif" font-size="13" lengthAdjust="spacingAndGlyphs" textLength="8" x="162.145" y="167.8023">n</text><!--link Artikel to Nutzer--><path d="M79.908,76.9016 C65.0278,89.4607 49.4797,106.0072 41.5,125 C36.0768,137.908 34.7902,152.7883 35.4183,166.7062 " fill="none" id="Artikel-Nutzer" style="stroke: #A80036; stroke-width: 1.0;"/><polygon fill="#A80036" points="35.7322,171.7848,39.1691,162.5551,35.4236,166.7943,31.1844,163.0488,35.7322,171.7848" style="stroke: #A80036; stroke-width: 1.0;"/><text fill="#000000" font-family="sans-serif" font-size="13" lengthAdjust="spacingAndGlyphs" textLength="103" x="42.5" y="138.5684">geschrieben von</text><text fill="#000000" font-family="sans-serif" font-size="13" lengthAdjust="spacingAndGlyphs" textLength="8" x="63.9165" y="78.0382">n</text><text fill="#000000" font-family="sans-serif" font-size="13" lengthAdjust="spacingAndGlyphs" textLength="8" x="25.6973" y="161.2262">1</text><!--
@startuml
class Nutzer {
  Nutzername
  Vorname
  Nachname
}
class Artikel {
  Überschrift
  Text
  Zeitpunkt
}
class Kommentare {
  Text
  Zeitpunkt
}

Artikel "1" *- - "n" Kommentare : enthält
Artikel "n" - -> "1" Nutzer : geschrieben von
@enduml

PlantUML version 1.2018.01(Sun Jan 28 19:08:22 CET 2018)
(APACHE source distribution)
Java Runtime: Java(TM) SE Runtime Environment
JVM: Java HotSpot(TM) 64-Bit Server VM
Java Version: 1.8.0_144-b01
Operating System: Mac OS X
OS Version: 10.13.4
Default Encoding: UTF-8
Language: de
Country: DE
--></g></svg>